<?xml version="1.0" encoding="iso-8859-1"?>
<!-- Uploaded to: SVG Repo, www.svgrepo.com, Generator: SVG Repo Mixer Tools -->
<svg version="1.1" id="Layer_1" xmlns="http://www.w3.org/2000/svg" xmlns:xlink="http://www.w3.org/1999/xlink" 
	 viewBox="0 0 512 512" xml:space="preserve">
<path style="fill:#E7ECED;" d="M373.333,120C396.896,120,416,139.104,416,162.667s-19.104,42.667-42.667,42.667
	c-23.563,0-42.667-19.104-42.667-42.667c0-23.232,18.56-42.123,41.664-42.656C372.661,120,373.003,120,373.333,120z"/>
<path style="fill:#A58763;" d="M266.667,472v26.667c0,0,0,5.333-5.333,5.333s-26.667,0-26.667,0s-21.333,0-26.667,0
	c-5.333,0-5.333-5.333-5.333-5.333V472H266.667z"/>
<rect x="202.667" y="440" style="fill:#A26234;" width="64" height="32"/>
<path style="fill:#A58763;" d="M266.667,418.667V440h-64v-21.333l16-21.333c0-26.645-18.485-45.888-24.672-51.584
	c9.632,2.347,19.68,3.584,30.005,3.584h21.333c10.325,0,20.373-1.237,30.005-3.584c-6.187,5.696-24.672,24.939-24.672,51.584
	L266.667,418.667z"/>
<path style="fill:#E7ECED;" d="M193.995,345.749c-36.096-8.747-66.336-32.907-83.296-65.056L112,280h245.333l1.301,0.693
	c-16.96,32.149-47.2,56.309-83.296,65.056c-9.632,2.347-19.68,3.584-30.005,3.584H224
	C213.675,349.333,203.627,348.096,193.995,345.749z"/>
<path style="fill:#F4661E;" d="M373.333,205.333v16c0,21.387-5.312,41.589-14.699,59.36L357.333,280H112l-1.301,0.693
	C101.312,262.923,96,242.72,96,221.333V136C96,65.6,153.6,8,224,8h21.333c64.981,0,119.061,49.077,126.997,111.989v0.021
	c-23.104,0.533-41.664,19.424-41.664,42.656C330.667,186.229,349.771,205.333,373.333,205.333z"/>
<path d="M424,162.667c0-25.931-19.585-47.361-44.738-50.308C367.885,47.849,311.456,0,245.333,0H224C149.009,0,88,61.009,88,136
	v85.333c0,21.926,5.403,43.744,15.622,63.092c17.977,34.078,49.376,58.956,86.366,68.554c6.048,5.927,19.54,21.351,20.61,41.777
	L194.667,416v82.667c0,6.464,4.673,13.333,13.333,13.333h53.333c8.66,0,13.333-6.869,13.333-13.333V416l-15.933-21.244
	c1.07-20.426,14.563-35.85,20.611-41.777c36.994-9.601,68.389-34.478,86.363-68.549c10.222-19.354,15.625-41.171,15.625-63.097
	v-8.638C405.483,208.848,424,187.882,424,162.667z M258.667,421.333V432h-48v-10.667l16-21.333v-2.667
	c0-16.384-6.207-30.233-12.886-40.4c3.395,0.256,6.804,0.4,10.22,0.4h21.333c3.415,0,6.825-0.144,10.22-0.4
	c-6.679,10.167-12.886,24.016-12.886,40.4V400L258.667,421.333z M258.667,448v16h-48v-16H258.667z M210.667,496v-16h48v16H210.667z
	 M273.444,337.977c-9.142,2.227-18.601,3.357-28.111,3.357H224c-9.51,0-18.969-1.13-28.121-3.359
	c-29.297-7.098-54.766-25.031-71.511-49.974h220.598C328.222,312.941,302.751,330.876,273.444,337.977z M354.016,272H115.317
	C107.907,256.213,104,238.816,104,221.333V136c0-66.167,53.833-120,120-120h21.333c57.623,0,106.902,41.184,117.781,97.04
	c-9.826,2.005-18.843,6.879-25.999,14.192c-9.317,9.523-14.45,22.108-14.45,35.436c0,25.215,18.517,46.181,42.667,50.029v8.638
	C365.333,238.815,361.426,256.211,354.016,272z M373.333,197.333c-19.116,0-34.667-15.551-34.667-34.667
	c0-18.681,15.184-34.227,33.847-34.658l0.067-0.002c0.186-0.005,0.375-0.006,0.561-0.006C392.382,127.924,408,143.488,408,162.667
	C408,181.782,392.449,197.333,373.333,197.333z"/>
</svg>